# xmcd
#
# Track frame offsets: 
#        150
#        17872
#        38422
#        50582
#        84615
#        103935
#        125990
#        149390
#        174442
#        190280
#        215002
#        247475
#        274310
#
# Disc length: 4015 seconds
#
# Revision: 0
# Processed by: cddbd v1.5.2PL0 Copyright (c) Steve Scherf et al.
# Submitted via: ExactAudioCopyFreeDBPlugin 1.0
#
DISCID=cf0fad0d
DTITLE=Lester Chambers and K.K. Martin - Blues For Sale
DYEAR=2001
DGENRE=Blues
TTITLE0=Ain't Got You
TTITLE1=Is You Is or Is You Ain't
TTITLE2=Luv U Mama
TTITLE3=Trouble in Mind
TTITLE4=Thrill upon the Hill
TTITLE5=Your Daddy Tonite
TTITLE6=Parchman Farm
TTITLE7=People Get Ready
TTITLE8=Evil and Wrong
TTITLE9=Tore Up
TTITLE10=Sittin' on top of the World
TTITLE11=Wind up from Mexico
TTITLE12=Time Has Come Today
EXTD=
EXTT0=
EXTT1=
EXTT2=
EXTT3=
EXTT4=
EXTT5=
EXTT6=
EXTT7=
EXTT8=
EXTT9=
EXTT10=
EXTT11=
EXTT12=
PLAYORDER=
